<?xml version="1.0" encoding="UTF-8" standalone="no"?>
<!-- Created with Inkscape (http://www.inkscape.org/) -->

<svg
   xmlns:dc="http://purl.org/dc/elements/1.1/"
   xmlns:cc="http://creativecommons.org/ns#"
   xmlns:rdf="http://www.w3.org/1999/02/22-rdf-syntax-ns#"
   xmlns:svg="http://www.w3.org/2000/svg"
   xmlns="http://www.w3.org/2000/svg"
   xmlns:sodipodi="http://sodipodi.sourceforge.net/DTD/sodipodi-0.dtd"
   xmlns:inkscape="http://www.inkscape.org/namespaces/inkscape"
   width="160mm"
   height="64mm"
   viewBox="0 0 160 64"
   version="1.1"
   id="svg6466"
   inkscape:version="0.92.1 r15371"
   sodipodi:docname="fire.svg">
  <defs
     id="defs6460" />
  <sodipodi:namedview
     id="base"
     pagecolor="#ffffff"
     bordercolor="#666666"
     borderopacity="1.0"
     inkscape:pageopacity="0.0"
     inkscape:pageshadow="2"
     inkscape:zoom="0.98994949"
     inkscape:cx="395.19967"
     inkscape:cy="231.64348"
     inkscape:document-units="mm"
     inkscape:current-layer="layer1"
     showgrid="false"
     showguides="false"
     inkscape:window-width="1366"
     inkscape:window-height="705"
     inkscape:window-x="-8"
     inkscape:window-y="-8"
     inkscape:window-maximized="1" />
  <metadata
     id="metadata6463">
    <rdf:RDF>
      <cc:Work
         rdf:about="">
        <dc:format>image/svg+xml</dc:format>
        <dc:type
           rdf:resource="http://purl.org/dc/dcmitype/StillImage" />
        <dc:title></dc:title>
      </cc:Work>
    </rdf:RDF>
  </metadata>
  <g
     inkscape:label="Layer 1"
     inkscape:groupmode="layer"
     id="layer1"
     transform="translate(0,-233)">
    <g
       id="g7091"
       transform="matrix(1.5175966,0,0,1.5175966,-52.413532,-20.731103)">
      <path
         inkscape:connector-curvature="0"
         id="path6390"
         d="m 66.544864,174.3049 0.590664,0.68522 c 0.932469,1.08143 1.760614,4.18129 1.776635,6.64921 0.01381,2.1286 0.01873,2.14353 0.610299,1.87481 0.749591,-0.34049 0.985395,-0.12226 0.615465,0.56896 -0.157308,0.29393 -0.285771,0.96266 -0.285771,1.48622 0,1.12543 0.733602,3.04168 1.004591,2.62414 0.297151,-0.45789 1.28405,-0.89556 2.020549,-0.89556 0.804789,0 0.819857,0.0685 0.216006,0.99012 -0.709906,1.08347 -0.587536,3.47843 0.307994,6.02134 1.712618,4.86306 0.945475,7.78388 -2.503723,9.53172 -1.016141,0.5149 -4.208593,1.28533 -4.749584,1.14617 -0.0728,-0.0188 -0.429947,-0.079 -0.79375,-0.13385 -4.167346,-0.62852 -6.171015,-2.11161 -7.002155,-5.1821 -0.61082,-2.25653 -0.444575,-3.30674 1.046964,-6.60477 2.43799,-5.39073 3.287352,-9.63607 2.422591,-12.10831 -0.227068,-0.64916 -0.360453,-1.23222 -0.296622,-1.29604 0.0638,-0.0638 0.504873,-0.007 0.980303,0.12507 0.637698,0.17806 1.011248,0.53197 1.424717,1.34824 l 0.56069,1.10638 1.008208,-2.14818 c 0.84886,-1.8089 1.01075,-2.4352 1.026811,-3.96825 z"
         style="fill:#ce2821;fill-opacity:1;stroke:none;stroke-width:2;stroke-miterlimit:4;stroke-dasharray:none;stroke-opacity:0.38144328" />
      <path
         inkscape:connector-curvature="0"
         id="path6380"
         d="m 67.377373,179.86012 c -0.07782,0.0116 -0.221318,0.22092 -0.430982,0.64076 -0.276749,0.55423 -0.92424,1.64137 -1.438672,2.41639 -0.514429,0.77504 -1.217258,2.27857 -1.562177,3.34089 -0.516152,1.5897 -0.674516,1.84754 -0.893487,1.45624 -0.230741,-0.4123 -0.28837,-0.36269 -0.436148,0.37622 -0.0937,0.4686 -0.779922,2.11611 -1.524973,3.66074 -1.498449,3.10661 -1.864006,4.82553 -1.507919,7.09621 0.41393,2.63966 1.822048,4.51186 3.982188,5.29528 1.255171,0.45523 4.276427,0.42653 5.420858,-0.0517 h 5.29e-4 c 1.567321,-0.65487 2.680319,-1.65605 3.382741,-3.04221 0.982178,-1.93823 0.891897,-3.59487 -0.400495,-7.33287 -0.582086,-1.68357 -1.062278,-3.42966 -1.067117,-3.87988 l -0.0093,-0.81854 -0.507463,0.60926 -0.507979,0.60928 -0.582911,-1.13845 c -0.32041,-0.62611 -0.593839,-1.64079 -0.607714,-2.25515 -0.02439,-1.08135 -0.04037,-1.10151 -0.507981,-0.63407 -0.26565,0.26558 -0.549521,0.97631 -0.630452,1.57974 -0.183689,1.36949 -0.434099,1.39206 -0.828889,0.0744 -0.443982,-1.48188 -0.378534,-3.10914 0.216006,-5.3449 0.465804,-1.75162 0.613553,-2.68311 0.442351,-2.65771 z"
         style="fill:#ef3410;fill-opacity:1;stroke:none;stroke-width:2;stroke-miterlimit:4;stroke-dasharray:none;stroke-opacity:0.38144328" />
      <path
         inkscape:connector-curvature="0"
         id="path6368"
         d="m 65.309281,187.68961 c 0.0279,0.003 0.05624,0.0127 0.08423,0.0299 0.124221,0.0768 0.225827,0.39847 0.225827,0.71523 0,0.6713 1.30474,3.36206 1.630391,3.36206 0.121701,0 0.221692,-0.1292 0.221692,-0.28681 0,-0.15759 0.429313,0.52702 0.954461,1.52135 1.148003,2.17371 1.131329,2.15345 1.426789,1.67534 0.129699,-0.20981 0.277895,-0.32533 0.329695,-0.25683 0.160739,0.21283 0.768048,3.23861 0.901237,4.4907 0.183859,1.72825 -0.720418,3.38047 -2.279447,4.16665 -2.283909,1.15174 -5.060286,0.60915 -6.288506,-1.22936 -0.667991,-0.99994 -0.794906,-2.7061 -0.316778,-4.26227 0.156181,-0.50835 0.36761,-1.81745 0.469739,-2.90889 l 0.185521,-1.98384 0.475937,0.88418 c 0.261732,0.48649 0.547823,0.81283 0.635622,0.72501 0.08781,-0.0878 0.243279,-1.31947 0.345199,-2.73677 0.17047,-2.37053 0.579417,-3.94581 0.998388,-3.9057 z"
         style="fill:#ffae18;fill-opacity:1;stroke:none;stroke-width:2;stroke-miterlimit:4;stroke-dasharray:none;stroke-opacity:0.38144328" />
    </g>
    <g
       id="g7086"
       transform="matrix(1.5175966,0,0,1.5175966,-54.444588,-20.731103)">
      <path
         inkscape:connector-curvature="0"
         id="path6388"
         d="m 45.470183,174.99477 0.84801,0.79375 c 1.723091,1.61219 2.331736,4.20032 1.837098,7.81296 -0.166661,1.21717 -0.226518,2.62171 -0.132808,3.12127 l 0.170532,0.90794 0.84129,-0.80047 c 0.462831,-0.44027 1.246706,-0.88545 1.741498,-0.98959 0.805778,-0.16966 0.879105,-0.13804 0.704866,0.30334 -0.342569,0.86778 -0.483655,2.16397 -0.310576,2.85356 l 0.168466,0.66974 0.856279,-0.52195 c 0.470998,-0.28717 1.228085,-0.52292 1.682583,-0.52347 h 0.826307 l -0.01757,2.71198 c -0.01,1.49158 0.08116,3.75285 0.202573,5.02449 0.265218,2.77794 -0.145722,4.16715 -1.747182,5.90454 -1.91807,2.08087 -5.761402,3.16314 -8.88266,2.50115 -1.887622,-0.40038 -3.327479,-1.18778 -4.489648,-2.45464 -1.51652,-1.65309 -2.045555,-3.50996 -1.859836,-6.5288 0.1348,-2.19125 0.37052,-3.04199 2.31407,-8.34935 0.458681,-1.25256 0.55468,-1.96599 0.455271,-3.38275 -0.12233,-1.74326 -0.111821,-1.78266 0.37052,-1.34617 0.273248,0.2473 0.632155,0.90069 0.797367,1.45211 l 0.300238,1.00253 0.835091,-1.37615 c 0.459193,-0.757 1.295929,-2.06618 1.85932,-2.90938 0.847439,-1.26834 1.027618,-1.77097 1.044898,-2.91042 0.01151,-0.75753 -0.07716,-1.73487 -0.197406,-2.17144 z"
         style="fill:#ce2821;fill-opacity:1;stroke:none;stroke-width:2;stroke-miterlimit:4;stroke-dasharray:none;stroke-opacity:0.38144328" />
      <path
         inkscape:connector-curvature="0"
         id="path6376"
         d="m 46.833406,180.9479 c -0.145516,0 -0.264583,0.17118 -0.264583,0.37981 0,0.20865 -0.610198,1.13138 -1.35599,2.05052 -1.531887,1.88799 -2.563879,3.97113 -2.657718,5.36453 l -0.06356,0.94155 -0.584462,-0.73017 -0.583943,-0.7302 -0.17725,0.79375 c -0.0975,0.43656 -0.668121,2.10344 -1.26814,3.70417 -1.770618,4.72371 -1.510377,7.52787 0.913122,9.83815 1.480532,1.41134 3.168907,1.95204 5.777942,1.85156 1.792221,-0.069 2.522418,-0.22677 3.595647,-0.77772 3.63255,-1.86475 4.784511,-5.14381 3.53105,-10.05313 -0.300529,-1.17708 -0.477253,-2.41766 -0.392223,-2.75643 0.101229,-0.40336 0.03902,-0.61449 -0.180867,-0.61185 -0.523502,0.006 -0.886161,0.32724 -1.322401,1.16943 l -0.402561,0.77619 -0.836123,-1.43764 c -0.569859,-0.97952 -0.809402,-1.70223 -0.751377,-2.26756 0.115221,-1.12242 -0.432223,-0.8872 -1.048514,0.45061 -0.260229,0.56491 -0.552302,1.02978 -0.649571,1.03354 -0.349602,0.0135 -1.365665,-1.93172 -1.567862,-3.00188 -0.129903,-0.68758 -0.06555,-1.91421 0.17363,-3.30989 0.45217,-2.63803 0.454117,-2.67734 0.115754,-2.67734 z"
         style="fill:#ef3410;fill-opacity:1;stroke:none;stroke-width:2;stroke-miterlimit:4;stroke-dasharray:none;stroke-opacity:0.38144328" />
      <path
         inkscape:connector-curvature="0"
         id="path6366"
         d="m 44.737927,189.41507 c 0.133961,0 0.243914,0.18592 0.243914,0.41291 0,0.22698 0.58996,1.0364 1.311032,1.79885 0.721069,0.76242 1.494321,1.73788 1.718241,2.1673 0.328168,0.62931 0.409062,0.67771 0.418063,0.25115 0.0061,-0.29105 0.161494,-0.80034 0.345715,-1.13224 0.32258,-0.58099 0.363045,-0.54435 1.094504,0.986 0.749782,1.56874 0.765191,1.58136 1.175639,0.99994 0.408753,-0.57899 0.419442,-0.56885 0.616501,0.6015 0.110281,0.65487 0.271219,1.96454 0.358119,2.91042 0.149648,1.62908 0.11413,1.78033 -0.677479,2.86392 -0.546579,0.74817 -1.311008,1.36518 -2.209168,1.78335 -0.91363,0.42536 -1.815848,0.63214 -2.695958,0.61804 -4.341861,-0.0698 -5.992151,-2.53621 -4.7625,-7.11739 0.214839,-0.80037 0.391773,-1.78261 0.393774,-2.18282 0.0038,-0.87405 0.177474,-0.90424 0.960665,-0.16846 l 0.594796,0.55862 0.14986,-0.95549 c 0.08242,-0.52565 0.213239,-1.40248 0.290939,-1.94821 0.26249,-1.84263 0.428823,-2.44739 0.673343,-2.44739 z"
         style="fill:#ffae18;fill-opacity:1;stroke:none;stroke-width:2;stroke-miterlimit:4;stroke-dasharray:none;stroke-opacity:0.38144328" />
    </g>
    <g
       id="g7097"
       transform="matrix(1.5175966,0,0,1.5175966,-49.016221,-20.731103)">
      <path
         inkscape:connector-curvature="0"
         id="path6394"
         d="m 85.170602,173.57211 c 0.16259,0.0143 0.458867,0.24598 0.887283,0.69506 0.925052,0.96964 1.30473,2.05441 1.100709,3.14193 -0.14832,0.79062 -0.101788,0.89296 0.403593,0.89296 0.545402,0 0.535189,0.0446 -0.223242,0.99219 -1.11787,1.39663 -1.893882,3.29232 -2.066539,5.04725 l -0.147796,1.50119 0.632002,-0.57568 c 0.347562,-0.31663 0.965166,-0.65852 1.372526,-0.75965 0.711931,-0.17674 0.732457,-0.1539 0.529167,0.57619 -0.696108,2.49997 0.149574,4.99972 2.717665,8.03362 2.72202,3.21575 3.01198,7.01617 0.72812,9.54413 -1.744361,1.9308 -6.357821,2.70269 -9.553421,1.59888 -1.745862,-0.60307 -2.518318,-1.3197 -3.435967,-3.18897 -1.062879,-2.16512 -0.966158,-3.99233 0.3576,-6.76185 0.848712,-1.77568 1.013587,-2.39888 1.024229,-3.8685 0.01378,-1.91003 0.09428,-1.96199 1.509469,-0.98237 0.690147,0.4777 0.700683,0.47664 0.564822,-0.0429 -0.212281,-0.81177 0.57703,-1.83973 1.272791,-1.65778 0.31528,0.0824 0.521727,0.0424 0.458886,-0.0889 -0.0628,-0.1312 -0.458632,-0.95311 -0.879534,-1.82623 -0.595299,-1.23492 -0.790736,-2.06542 -0.879014,-3.7393 -0.17603,-3.3374 0.876514,-5.81801 2.915584,-6.87245 0.641321,-0.33166 0.756287,-0.52504 0.624768,-1.04905 -0.105616,-0.42079 -0.07629,-0.62402 0.0863,-0.60978 z"
         style="fill:#ce2821;fill-opacity:1;stroke:none;stroke-width:2;stroke-miterlimit:4;stroke-dasharray:none;stroke-opacity:0.38144328" />
      <path
         inkscape:connector-curvature="0"
         id="path6382"
         d="m 83.971709,179.48753 c -0.06652,-0.0116 -0.182247,0.0419 -0.360701,0.13745 -0.860459,0.46051 -1.133544,1.29294 -0.994254,3.02824 0.101809,1.26833 0.994024,3.85281 1.329635,3.85093 0.0334,-1.9e-4 0.06098,-0.86881 0.06098,-1.93011 0,-1.39221 0.128955,-2.12627 0.463021,-2.63602 0.614421,-0.93758 0.584041,-1.23661 -0.107484,-1.05577 -0.518721,0.13566 -0.555631,0.0729 -0.402561,-0.69244 0.09673,-0.48363 0.122235,-0.68307 0.01138,-0.70228 z"
         style="fill:#ef3410;fill-opacity:1;stroke:none;stroke-width:2;stroke-miterlimit:4;stroke-dasharray:none;stroke-opacity:0.38144328" />
      <path
         inkscape:connector-curvature="0"
         id="path6370"
         d="m 84.645053,187.56248 c -0.132501,0 -0.240814,0.42082 -0.240814,0.93483 0,1.47174 -0.662095,2.69584 -2.400884,4.44002 -1.866032,1.87185 -2.753461,3.27324 -3.125391,4.93562 -0.562282,2.51319 0.698278,5.07936 3.010667,6.12987 1.232311,0.55983 4.15475,0.65754 5.71128,0.19121 1.320811,-0.39574 2.863607,-1.68709 3.319693,-2.77865 0.773581,-1.85145 0.134112,-4.45294 -1.621089,-6.59495 -0.53155,-0.64868 -1.296231,-1.83264 -1.69912,-2.63137 -0.69274,-1.37337 -0.748363,-1.42025 -1.020093,-0.8568 -0.275129,0.57053 -0.287742,0.56177 -0.304892,-0.21187 -0.01961,-0.88527 -1.243597,-3.55791 -1.629357,-3.55791 z"
         style="fill:#ef3410;fill-opacity:1;stroke:none;stroke-width:2;stroke-miterlimit:4;stroke-dasharray:none;stroke-opacity:0.38144328" />
      <path
         inkscape:connector-curvature="0"
         id="path6360"
         d="m 85.098771,192.72236 0.582395,0.92604 c 0.320181,0.50932 0.655056,1.37253 0.744657,1.91823 0.09126,0.55605 0.314589,0.99219 0.507979,0.99219 0.52234,0 1.370549,1.34355 1.717209,2.72025 0.27667,1.09872 0.247687,1.3543 -0.275952,2.43603 -0.32176,0.66462 -0.904185,1.37323 -1.294496,1.57508 -1.160729,0.60021 -2.460278,0.70171 -3.601847,0.28112 -0.58208,-0.21445 -1.085162,-0.39176 -1.117761,-0.39375 -0.245592,-0.0164 -0.866614,-1.72413 -0.866614,-2.38281 0,-0.96813 0.767107,-2.56778 1.586466,-3.30885 0.7806,-0.70599 1.343295,-1.83674 1.713074,-3.44061 z"
         style="fill:#ffae18;fill-opacity:1;stroke:none;stroke-width:2;stroke-miterlimit:4;stroke-dasharray:none;stroke-opacity:0.38144328" />
    </g>
    <g
       id="g7104"
       transform="matrix(1.5175966,0,0,1.5175966,-46.767154,-20.731103)">
      <path
         inkscape:connector-curvature="0"
         id="path6396"
         d="m 105.31356,173.29202 c 0.51539,-0.006 1.16553,0.16592 1.83503,0.50747 1.09573,0.55899 1.3649,1.09752 1.02681,2.05518 -0.18133,0.51363 -0.12011,0.59531 0.44493,0.59531 1.15204,0 0.70948,0.42894 -1.44384,1.39938 -2.39228,1.07815 -3.19308,1.75551 -3.19308,2.70166 0,0.7705 -0.0555,0.7737 -1.45521,0.078 -3.701338,-1.8397 -3.516283,-4.72961 0.39687,-6.19808 0.65486,-0.24574 1.32259,-0.6065 1.48415,-0.8015 0.18396,-0.22201 0.50348,-0.33308 0.90434,-0.33745 z"
         style="fill:#ce2821;fill-opacity:1;stroke:none;stroke-width:2;stroke-miterlimit:4;stroke-dasharray:none;stroke-opacity:0.38144328" />
      <path
         inkscape:connector-curvature="0"
         id="path6386"
         d="m 104.34566,175.13016 c -0.1889,0.009 -0.27569,0.11631 -0.39481,0.32917 -0.14207,0.25387 -0.42705,0.46148 -0.63303,0.46148 -0.51321,0 -2.18148,1.5004 -2.38642,2.14612 -0.22841,0.71964 0.50112,1.75167 1.5384,2.17662 0.8146,0.33369 0.86502,0.31808 1.15032,-0.35295 0.16418,-0.38614 0.86931,-1.08001 1.56683,-1.54202 0.69752,-0.46204 1.37411,-0.84027 1.50327,-0.84027 0.12916,0 0.14283,-0.14848 0.0305,-0.33022 -0.11231,-0.18172 -0.20852,-0.56867 -0.21394,-0.8599 -0.007,-0.38338 -0.32568,-0.63868 -1.15394,-0.92501 -0.52751,-0.18232 -0.81828,-0.27194 -1.00717,-0.26302 z"
         style="fill:#ef3410;fill-opacity:1;stroke:none;stroke-width:2;stroke-miterlimit:4;stroke-dasharray:none;stroke-opacity:0.38144328" />
      <path
         inkscape:connector-curvature="0"
         id="path6374"
         d="m 104.71049,185.18123 c 0.25018,0 1.38476,2.87528 1.387,3.51502 0.002,0.64688 0.0651,0.70344 0.51521,0.46252 0.4651,-0.24892 0.53034,-0.15735 0.70125,0.98287 0.19969,1.33228 0.20653,1.34059 3.53984,4.27416 2.00024,1.76038 2.47509,2.6339 2.47685,4.55787 0.002,2.67369 -1.7457,4.76373 -4.75733,5.68751 -1.56348,0.47956 -5.33733,0.68239 -7.00526,0.3767 -2.76658,-0.50701 -4.837323,-2.03778 -5.509224,-4.07364 -0.416079,-1.26074 0.02217,-2.82263 1.147733,-4.0902 1.081641,-1.21814 1.272678,-1.73096 0.955498,-2.56521 -0.336881,-0.88607 0.423688,-1.37488 2.601913,-1.67275 1.26036,-0.17238 1.8289,-0.4009 2.42776,-0.97462 1.15887,-1.11027 1.66971,-2.68629 1.5384,-4.74856 -0.0606,-0.95221 -0.0696,-1.73167 -0.0196,-1.73167 z"
         style="fill:#ce2821;fill-opacity:1;stroke:none;stroke-width:2;stroke-miterlimit:4;stroke-dasharray:none;stroke-opacity:0.38144328" />
      <path
         inkscape:connector-curvature="0"
         id="path6364"
         d="m 105.5089,191.13436 -0.18914,0.79375 c -0.27984,1.17287 -0.99275,2.42802 -1.63349,2.87681 -0.50819,0.35597 -0.65939,0.34433 -1.51877,-0.11626 -1.4383,-0.77089 -2.05804,-0.67461 -2.403473,0.37206 -0.160311,0.48575 -0.819804,1.50175 -1.465543,2.25827 -1.529432,1.79175 -1.731248,2.81739 -0.880568,4.47413 1.424311,2.77397 6.449884,3.9384 10.889254,2.52335 2.28752,-0.72908 3.87832,-2.56907 3.87832,-4.486 0,-1.69172 -0.93086,-3.19527 -2.54041,-4.10364 -1.49328,-0.84275 -2.75126,-2.11309 -2.75126,-2.77812 0,-0.26485 -0.16234,-0.34314 -0.49454,-0.2377 -0.39354,0.12491 -0.53521,-0.0199 -0.69246,-0.70953 z"
         style="fill:#ef3410;fill-opacity:1;stroke:none;stroke-width:2;stroke-miterlimit:4;stroke-dasharray:none;stroke-opacity:0.38144328" />
      <path
         inkscape:connector-curvature="0"
         id="path6348"
         d="m 105.57039,195.69686 c 0.0782,0.007 0.1487,0.11485 0.2465,0.29765 0.15589,0.29128 0.2837,0.72917 0.2837,0.97256 0,0.28392 0.14158,0.3879 0.39688,0.2899 0.25871,-0.0993 0.39687,0.007 0.39687,0.30644 0,0.25223 0.52778,0.97044 1.17306,1.59577 1.95948,1.89897 1.84932,3.1411 -0.37983,4.2788 -2.47519,1.26335 -6.37298,0.60606 -7.20266,-1.21492 -0.478,-1.04904 0.0246,-1.83929 2.04381,-3.21322 1.33334,-0.90726 2.01328,-1.58007 2.42827,-2.40245 0.33163,-0.65711 0.48302,-0.92284 0.6134,-0.91053 z"
         style="fill:#ffae18;fill-opacity:1;stroke:none;stroke-width:2;stroke-miterlimit:4;stroke-dasharray:none;stroke-opacity:0.38144328" />
    </g>
    <g
       id="g7138"
       transform="translate(5.532822)">
      <path
         inkscape:connector-curvature="0"
         id="path6398"
         d="m 140.44685,241.2219 c 0.46175,0.0109 0.89568,0.0778 1.28693,0.20704 2.58291,0.85244 1.17302,3.38417 -1.63121,2.92912 -2.06027,-0.33434 -4.79623,0.22043 -6.37821,1.294 -0.98269,0.66687 -1.43047,0.80235 -1.43047,0.43211 0,-0.29648 0.79951,-1.27589 1.77632,-2.17628 1.85191,-1.70702 4.37576,-2.73128 6.37664,-2.68599 z"
         style="fill:#ce2821;fill-opacity:1;stroke:none;stroke-width:3.03519344;stroke-miterlimit:4;stroke-dasharray:none;stroke-opacity:0.38144328" />
      <path
         inkscape:connector-curvature="0"
         id="path6384"
         d="m 142.50941,245.44268 c 1.56225,0 2.19431,0.63514 1.37557,1.38102 -0.40528,0.36921 -0.83871,0.39146 -1.65319,0.0846 -1.57742,-0.59401 -1.41227,-1.4657 0.27762,-1.4657 z"
         style="fill:#ce2821;fill-opacity:1;stroke:none;stroke-width:3.03519344;stroke-miterlimit:4;stroke-dasharray:none;stroke-opacity:0.38144328" />
      <path
         inkscape:connector-curvature="0"
         id="path6372"
         d="m 139.57792,262.35322 c 0.23558,-0.0324 0.079,0.2199 -0.45797,0.75681 -1.52986,1.5298 -0.74297,4.75227 1.56139,6.39314 1.51192,1.07657 1.82459,1.05191 2.39038,-0.18981 0.44248,-0.97117 2.57223,-2.18802 3.83022,-2.18802 0.48158,0 0.50122,0.21088 0.11369,1.23909 -0.50403,1.33717 -0.29487,1.63178 2.72445,3.82868 1.14697,0.83448 1.17676,0.9516 1.55359,6.09354 l 0.38428,5.24342 -1.08147,1.84532 c -1.92343,3.28207 -5.55508,4.99923 -11.07503,5.23712 -1.87716,0.0808 -3.86472,0.06 -4.41685,-0.0471 -3.09098,-0.59903 -4.83388,-1.49021 -6.58917,-3.36672 -1.21417,-1.29805 -1.85833,-2.3526 -1.88845,-3.09147 -0.0252,-0.61679 -0.119,-2.20561 -0.20861,-3.53065 -0.35006,-5.17719 -0.33182,-5.37468 0.61014,-6.64879 0.5057,-0.68405 0.85811,-1.27497 0.78345,-1.3128 -3.25525,-1.65037 -3.36334,-2.22975 -0.5372,-2.87742 1.1042,-0.25303 2.86788,-0.84495 3.91965,-1.31513 l 1.91273,-0.85485 -1.00929,1.72144 c -1.68038,2.86725 -1.20505,4.26077 1.4524,4.26077 1.60375,0 2.75895,-0.82244 2.75895,-1.96453 0,-0.38655 -0.28663,-1.54381 -0.6368,-2.57153 -0.89648,-2.63107 -0.28845,-4.35849 2.00846,-5.70455 1.03332,-0.60559 1.66148,-0.92341 1.89705,-0.956 z"
         style="fill:#ce2821;fill-opacity:1;stroke:none;stroke-width:3.03519344;stroke-miterlimit:4;stroke-dasharray:none;stroke-opacity:0.38144328" />
      <path
         inkscape:connector-curvature="0"
         id="path6362"
         d="m 137.99296,270.54619 c -0.0908,0.0139 -0.11478,0.23554 -0.14112,0.63603 -0.0351,0.52952 -0.0197,1.88545 0.0347,3.01383 0.087,1.81347 -0.0287,2.15134 -0.99442,2.91111 -1.70842,1.34384 -5.67482,1.05935 -6.67546,-0.47919 -0.37783,-0.58103 -1.33125,0.27544 -1.93864,1.74179 -0.36661,0.8851 -0.37725,1.49684 -0.0431,2.45545 0.24483,0.70232 0.44546,2.13991 0.44546,3.19419 0,2.30436 1.28738,4.08701 3.79808,5.25993 1.36364,0.63708 2.39185,0.73936 6.44094,0.63995 4.47625,-0.10988 4.97392,-0.2038 7.01504,-1.31754 1.20842,-0.65937 2.62643,-1.83151 3.15107,-2.60448 0.88226,-1.29986 0.93481,-1.66157 0.69797,-4.81837 -0.26139,-3.48377 -0.84868,-6.02295 -1.39279,-6.02295 -0.16698,0 -1.05635,-0.69493 -1.97709,-1.54495 -1.74762,-1.61342 -2.08713,-1.58153 -2.76994,0.26428 l -0.32703,0.88466 -1.79433,-0.90583 c -0.98658,-0.49838 -2.20146,-1.51994 -2.70012,-2.27037 -0.48492,-0.72962 -0.71212,-1.05536 -0.82894,-1.03754 z"
         style="fill:#ef3410;fill-opacity:1;stroke:none;stroke-width:3.03519344;stroke-miterlimit:4;stroke-dasharray:none;stroke-opacity:0.38144328" />
      <path
         inkscape:connector-curvature="0"
         id="path6340"
         d="m 140.47351,277.43182 1.981,2.15432 c 1.78309,1.93917 2.03113,2.08594 2.48291,1.46805 0.7352,-1.00538 1.37995,-0.0511 1.68061,2.48764 0.23365,1.97269 0.18942,2.09434 -1.2485,3.41142 -0.82007,0.75117 -2.04233,1.47608 -2.71582,1.61083 -2.84758,0.56955 -7.30752,0.26434 -9.09953,-0.62267 -2.76505,-1.36863 -3.88542,-3.78981 -2.72289,-5.88495 0.46015,-0.82933 0.57357,-0.86213 1.03913,-0.30115 0.77049,0.92843 3.54186,0.78442 5.40732,-0.28076 0.92282,-0.52693 1.906,-1.54546 2.38333,-2.46956 z"
         style="fill:#ffae18;fill-opacity:1;stroke:none;stroke-width:3.03519344;stroke-miterlimit:4;stroke-dasharray:none;stroke-opacity:0.38144328" />
    </g>
  </g>
</svg>
